<svg viewBox="0 0 321 255" fill="none" xmlns="http://www.w3.org/2000/svg">
<path d="M176.9 152.4C177.7 160.7 185 166.8 193.3 166C194.9 165.9 196.4 165.5 197.8 164.9C201.5 171 208.4 174.8 216 174.1C221.7 173.6 226.5 170.7 229.7 166.4C233.3 168.9 237.7 170.2 242.4 169.8C245.9 169.5 249 168.3 251.6 166.4C254.2 174.9 262.5 180.8 271.7 179.9C280.6 179.1 287.5 172.3 288.9 163.8C290.8 164.3 292.8 164.5 294.8 164.3C304 163.5 310.8 155.3 310 146.1C309.2 136.9 301 130.1 291.8 130.9C289.2 131.1 286.7 132 284.6 133.3C280.8 129.9 275.6 128 270.1 128.5C266.6 128.8 263.4 130.1 260.7 132C257.3 125.1 249.9 120.6 241.7 121.4C234.8 122 229.1 126.2 226.3 131.9C223 130 219.1 129.1 215 129.4C208.8 130 203.5 133.5 200.4 138.4C197.6 136.5 194.1 135.5 190.5 135.8C182.2 136.8 176.1 144.1 176.9 152.4Z" fill="white"/>
<path fill-rule="evenodd" clip-rule="evenodd" d="M224.4 143.5C218.4 145.3 212 146.4 205.4 146.6C164.8 147.8 130.9 115.8 129.7 75.3C129.5 69.6 130 64 131.1 58.7C102.3 68.7 82.1 96.5 83 128.6C84.2 168.2 117.2 199.4 156.8 198.2C189.8 197 216.9 174 224.4 143.5Z" fill="#FFC200"/>
<path d="M214.3 78.1L220.1 89.4L232.7 91.5L223.7 100.5L225.7 113L214.3 107.3L203 113L205 100.5L196 91.5L208.5 89.4L214.3 78.1Z" fill="#FFC200"/>
<path d="M171.6 56L175.2 63.1L183 64.3L177.4 69.9L178.6 77.8L171.6 74.2L164.5 77.8L165.7 69.9L160.1 64.3L168 63.1L171.6 56Z" fill="#FFC200"/>
<path d="M143.4 149.1C142.6 140.8 135.3 134.7 127 135.5C125.4 135.6 123.9 136 122.5 136.6C118.8 130.5 111.9 126.7 104.3 127.4C98.6 127.9 93.8 130.8 90.6 135.1C87 132.6 82.6 131.3 77.9 131.7C74.4 132 71.3 133.2 68.7 135.1C66.1 126.6 57.8 120.7 48.6 121.6C39.7 122.4 32.8 129.2 31.4 137.7C29.5 137.2 27.5 137 25.5 137.2C16.3 138 9.50002 146.2 10.3 155.4C11.1 164.6 19.3 171.4 28.5 170.6C31.1 170.4 33.6 169.5 35.7 168.2C39.5 171.6 44.7 173.5 50.2 173C53.7 172.7 56.9 171.4 59.6 169.5C63 176.4 70.4 180.9 78.6 180.1C85.5 179.5 91.2 175.3 94 169.6C97.3 171.5 101.2 172.4 105.3 172.1C111.5 171.5 116.8 168 119.9 163.1C122.7 165 126.2 166 129.8 165.7C138.1 164.8 144.2 157.4 143.4 149.1Z" fill="white"/>
</svg>
