<svg viewBox="0 0 321 255" fill="none" xmlns="http://www.w3.org/2000/svg">
<path d="M260.3 130C248.1 130 237.2 135.7 230.1 144.6C225.7 141.6 220.7 139.5 215.4 138.3C215.8 136.2 216.1 134.1 216.1 131.9C216.1 115 202.4 101.2 185.4 101.2C178.9 101.2 172.9 103.2 167.9 106.7C163.6 105 158.9 104.1 154 104.1C136.4 104.1 121.6 116 117.2 132.1C100.8 134 88.1 147.9 88.1 164.8C88.1 181.7 100.9 195.7 117.4 197.5C121.6 209.6 133 218.2 146.5 218.2C156.5 218.2 165.4 213.4 171 206C178.9 216.8 191.6 223.8 206 223.8C221.7 223.8 235.4 215.5 243 203C248.2 205.6 254.1 207.1 260.3 207.1C281.6 207.1 298.9 189.8 298.9 168.5C298.9 147.2 281.6 130 260.3 130Z" fill="#6FB3E2"/>
<path fill-rule="evenodd" clip-rule="evenodd" d="M270.5 117.6C264.5 119.4 258.1 120.5 251.5 120.7C210.9 121.9 177 89.8999 175.8 49.3999C175.6 43.6999 176.1 38.0999 177.2 32.7999C148.4 42.7999 128.2 70.5999 129.1 102.7C130.3 142.3 163.3 173.5 202.9 172.3C235.9 171.2 263 148.1 270.5 117.6Z" fill="#FFC200"/>
<path d="M260.5 52.2999L266.2 63.5999L278.8 65.5999L269.8 74.5999L271.8 87.1999L260.5 81.3999L249.1 87.1999L251.1 74.5999L242.1 65.5999L254.7 63.5999L260.5 52.2999Z" fill="#FFC200"/>
<path d="M217.7 30.2L221.3 37.2L229.1 38.5L223.5 44.0999L224.8 51.9L217.7 48.2999L210.6 51.9L211.9 44.0999L206.3 38.5L214.1 37.2L217.7 30.2Z" fill="#FFC200"/>
<path d="M175.7 128.5C172.1 128.5 168.7 129.1 165.6 130.3C161 105.8 139.5 87.2999 113.7 87.2999C90.7 87.2999 71.2 102 63.9 122.4C62.1 122.1 60.2 122 58.3 122C37.9 122 21.4 138.5 21.4 158.9C21.4 179.3 37.9 195.8 58.3 195.8C68.8 195.8 78.2 191.4 84.9 184.4C93.2 189.8 103 192.9 113.6 192.9C128.4 192.9 141.8 186.8 151.3 177C156.8 184.4 165.6 189.2 175.6 189.2C192.4 189.2 206 175.6 206 158.8C206 142 192.5 128.5 175.7 128.5Z" fill="white"/>
</svg>
