<svg viewBox="0 0 321 255" fill="none" xmlns="http://www.w3.org/2000/svg">
<path d="M258.1 83.7C256.6 83.7 255.2 83.8001 253.8 83.9001C252.2 70.6001 240.9 60.2001 227.2 60.2001C221.9 60.2001 217 61.8001 212.8 64.4001C209.3 51.4001 197.4 41.8 183.3 41.8C171.6 41.8 161.4 48.4 156.3 58C154.9 57.8 153.4 57.7001 151.9 57.7001C134.3 57.7001 119.5 69.6 115.1 85.7C98.7 87.6 86 101.5 86 118.4C86 135.3 98.8 149.3 115.3 151.1C119.5 163.2 130.9 171.8 144.4 171.8C154.4 171.8 163.3 167 168.9 159.6C176.8 170.4 189.5 177.4 203.9 177.4C219.6 177.4 233.3 169.1 240.9 156.6C246.1 159.2 252 160.7 258.2 160.7C279.5 160.7 296.8 143.4 296.8 122.1C296.7 101 279.4 83.7 258.1 83.7Z" fill="#ACD2E8"/>
<path d="M177.9 83C174.3 83 170.9 83.6001 167.8 84.8001C163.2 60.3001 141.7 41.8 115.9 41.8C92.9 41.8 73.4 56.5001 66.1 76.9001C64.3 76.6001 62.4 76.5 60.5 76.5C40.1 76.5 23.6 93.0001 23.6 113.4C23.6 133.8 40.1 150.3 60.5 150.3C71 150.3 80.4 145.9 87.1 138.9C95.4 144.3 105.2 147.4 115.8 147.4C130.6 147.4 144 141.3 153.5 131.5C159 138.9 167.8 143.7 177.8 143.7C194.6 143.7 208.2 130.1 208.2 113.3C208.2 96.6 194.6 83 177.9 83Z" fill="white"/>
<path d="M68.9 200.9C66.1 197.5 67.7 192.9 72.2 191.2C76 189.8 80.7 188.7 87 188.7C98.6 188.7 104.7 192.3 109.7 195.1C113.9 197.5 116.9 199.2 123.6 199.2C130.3 199.2 133.4 197.5 137.5 195.1C142.5 192.2 148.6 188.7 160.2 188.7C171.7 188.7 177.9 192.3 182.9 195.1C187.1 197.5 190.1 199.2 196.8 199.2C203.5 199.2 206.6 197.5 210.7 195.1C215.7 192.2 221.8 188.7 233.4 188.7C239.7 188.7 244.4 189.8 248.2 191.2C252.6 192.9 254.2 197.5 251.5 200.9C249.4 203.5 245.4 204.4 241.9 203.2C239.7 202.4 237.1 201.8 233.4 201.8C226.7 201.8 223.6 203.5 219.5 205.9C214.5 208.8 208.4 212.3 196.8 212.3C185.2 212.3 179.1 208.7 174.1 205.9C169.9 203.5 166.9 201.8 160.2 201.8C153.4 201.8 150.4 203.5 146.3 205.9C141.3 208.8 135.2 212.3 123.6 212.3C112 212.3 105.9 208.7 100.9 205.9C96.7 203.5 93.7 201.8 87 201.8C83.3 201.8 80.8 202.3 78.5 203.2C75 204.4 71 203.5 68.9 200.9Z" fill="white"/>
</svg>
