<svg  viewBox="0 0 321 255" fill="none" xmlns="http://www.w3.org/2000/svg">
<path d="M106 199.9L110.5 188.5C111.2 186.7 110.3 184.7 108.5 184L102.2 181.5C100.4 180.8 98.4 181.7 97.7 183.5L93.2 194.9C92.5 196.7 93.4 198.7 95.2 199.4L101.5 201.9C103.3 202.5 105.3 201.7 106 199.9Z" fill="#A2D8ED"/>
<path d="M98.3001 210L92 207.5C90.2 206.8 88.2 207.7 87.5 209.5L83 220.9C82.3 222.7 83.2 224.7 85 225.4L91.3001 227.9C93.1001 228.6 95.1001 227.7 95.8001 225.9L100.3 214.5C101 212.7 100.1 210.7 98.3001 210Z" fill="#A2D8ED"/>
<path d="M130 203.3L123.7 200.8C121.9 200.1 119.9 201 119.2 202.8L114.7 214.2C114 216 114.9 218 116.7 218.7L123 221.2C124.8 221.9 126.8 221 127.5 219.2L132 207.8C132.7 206 131.8 204 130 203.3Z" fill="#A2D8ED"/>
<path d="M119.9 229.3L113.6 226.8C111.8 226.1 109.8 227 109.1 228.8L104.6 240.2C103.9 242 104.8 244 106.6 244.7L112.9 247.2C114.7 247.9 116.7 247 117.4 245.2L121.9 233.8C122.5 232 121.6 230 119.9 229.3Z" fill="#A2D8ED"/>
<path d="M158.4 210L152.1 207.5C150.3 206.8 148.3 207.7 147.6 209.5L143.1 220.9C142.4 222.7 143.3 224.7 145.1 225.4L151.4 227.9C153.2 228.6 155.2 227.7 155.9 225.9L160.4 214.5C161.1 212.7 160.2 210.7 158.4 210Z" fill="#A2D8ED"/>
<path d="M217.6 210L211.3 207.5C209.5 206.8 207.5 207.7 206.8 209.5L202.3 220.9C201.6 222.7 202.5 224.7 204.3 225.4L210.6 227.9C212.4 228.6 214.4 227.7 215.1 225.9L219.6 214.5C220.2 212.7 219.4 210.7 217.6 210Z" fill="#A2D8ED"/>
<path d="M190.1 203.3L183.8 200.8C182 200.1 180 201 179.3 202.8L174.8 214.2C174.1 216 175 218 176.8 218.7L183.1 221.2C184.9 221.9 186.9 221 187.6 219.2L192.1 207.8C192.8 206 191.9 204 190.1 203.3Z" fill="#A2D8ED"/>
<path d="M180 229.3L173.7 226.8C171.9 226.1 169.9 227 169.2 228.8L164.7 240.2C164 242 164.9 244 166.7 244.7L173 247.2C174.8 247.9 176.8 247 177.5 245.2L182 233.8C182.6 232 181.7 230 180 229.3Z" fill="#A2D8ED"/>
<path d="M260.3 106.5C248.1 106.5 237.2 112.2 230.1 121.1C225.7 118.1 220.7 116 215.4 114.8C215.8 112.7 216.1 110.6 216.1 108.4C216.1 91.5 202.4 77.7 185.4 77.7C178.9 77.7 172.9 79.7 167.9 83.2C163.6 81.5 158.9 80.6 154 80.6C136.4 80.6 121.6 92.5 117.2 108.6C100.8 110.5 88.1 124.4 88.1 141.3C88.1 158.2 100.9 172.2 117.4 174C121.6 186.1 133 194.7 146.5 194.7C156.5 194.7 165.4 189.9 171 182.5C178.9 193.3 191.6 200.3 206 200.3C221.7 200.3 235.4 192 243 179.5C248.2 182.1 254.1 183.6 260.3 183.6C281.6 183.6 298.9 166.3 298.9 145C298.9 123.8 281.6 106.5 260.3 106.5Z" fill="#0099DD"/>
<path fill-rule="evenodd" clip-rule="evenodd" d="M270.5 94.0999C264.5 95.8999 258.1 96.9999 251.5 97.1999C210.9 98.3999 177 66.3999 175.8 25.8999C175.6 20.1999 176.1 14.5999 177.2 9.29993C148.4 19.2999 128.2 47.0999 129.1 79.1999C130.3 118.8 163.3 150 202.9 148.8C235.9 147.7 263 124.6 270.5 94.0999Z" fill="#FFC200"/>
<path d="M260.5 28.7999L266.2 40.0999L278.8 42.0999L269.8 51.0999L271.8 63.6999L260.5 57.8999L249.1 63.6999L251.1 51.0999L242.1 42.0999L254.7 40.0999L260.5 28.7999Z" fill="#FFC200"/>
<path d="M217.7 6.69995L221.3 13.7L229.1 15L223.5 20.6L224.8 28.4L217.7 24.9L210.6 28.4L211.9 20.6L206.3 15L214.1 13.7L217.7 6.69995Z" fill="#FFC200"/>
<path d="M175.7 105C172.1 105 168.7 105.6 165.6 106.8C161 82.2999 139.5 63.7999 113.7 63.7999C90.7 63.7999 71.2 78.4999 63.9 98.8999C62.1 98.5999 60.2 98.4999 58.3 98.4999C37.9 98.4999 21.4 115 21.4 135.4C21.4 155.8 37.9 172.3 58.3 172.3C68.8 172.3 78.2 167.9 84.9 160.9C93.2 166.3 103 169.4 113.6 169.4C128.4 169.4 141.8 163.3 151.3 153.5C156.8 160.9 165.6 165.7 175.6 165.7C192.4 165.7 206 152.1 206 135.3C206 118.5 192.5 105 175.7 105Z" fill="white"/>
</svg>
