<svg viewBox="0 0 321 255" fill="none" xmlns="http://www.w3.org/2000/svg">
<path d="M264.4 129.9C263.3 129.8 262.2 129.9 261.1 129.9C260.4 119.8 252.3 111.6 242 111.1C238 110.9 234.2 111.9 231 113.7C228.8 103.8 220.3 96.1 209.6 95.5C200.8 95.1 192.9 99.6 188.6 106.7C187.5 106.5 186.4 106.4 185.3 106.3C172.1 105.6 160.5 114 156.5 126C144.1 126.8 134 136.8 133.3 149.5C132.7 162.3 141.8 173.3 154.1 175.3C156.8 184.5 165 191.5 175.2 192C182.7 192.4 189.6 189.1 194.1 183.7C199.6 192.1 209 197.9 219.8 198.5C231.6 199.1 242.3 193.3 248.5 184.2C252.3 186.4 256.7 187.7 261.4 188C277.5 188.8 291.1 176.5 292 160.4C292.8 144.4 280.4 130.7 264.4 129.9Z" fill="#0099DD"/>
<path d="M130.2 142.1C127.9 141.9 125.7 142.1 123.5 142.6C122.1 126.4 109.5 113 92.8 111.3C77.9 109.8 64.3 118 58.3 130.8C57.1 130.5 56 130.3 54.7 130.1C41.5 128.8 29.7 138.4 28.4 151.6C27.1 164.8 36.7 176.6 49.9 177.9C56.7 178.6 63.1 176.4 67.9 172.3C72.9 176.3 79.1 179 85.9 179.7C95.5 180.7 104.5 177.6 111.4 171.9C114.5 177 119.9 180.7 126.3 181.4C137.1 182.5 146.8 174.6 147.9 163.8C149 152.9 141.1 143.2 130.2 142.1Z" fill="#0099DD"/>
<path d="M246.6 81.5C245.3 81.5 243.9 81.6 242.6 81.7C241.2 69.2 230.8 59.6 218.1 59.6C213.2 59.6 208.7 61.1 204.9 63.5C201.6 51.3 190.7 42.4 177.7 42.4C166.9 42.4 157.6 48.5 152.8 57.5C151.5 57.3 150.1 57.3 148.8 57.3C132.6 57.3 119 68.4 114.9 83.5C99.8 85.2 88.1 98.2 88.1 114C88.1 129.9 99.9 142.9 115.1 144.6C118.9 155.9 129.4 164 141.8 164C151 164 159.2 159.5 164.3 152.6C171.6 162.7 183.3 169.3 196.5 169.3C210.9 169.3 223.6 161.5 230.6 149.9C235.4 152.4 240.8 153.7 246.6 153.7C266.2 153.7 282.1 137.5 282.1 117.6C282.1 97.7 266.2 81.5 246.6 81.5Z" fill="#6FB3E2"/>
<path d="M175.9 155.6C173.2 155.4 170.7 155.7 168.3 156.4C166.1 137.9 151 123 131.7 121.7C114.6 120.5 99.2 130.5 92.8 145.4C91.5 145.1 90.1 144.9 88.7 144.8C73.5 143.8 60.3 155.3 59.3 170.5C58.3 185.7 69.8 198.9 85 199.9C92.8 200.4 100.1 197.6 105.4 192.7C111.3 197.1 118.5 199.9 126.4 200.5C137.4 201.2 147.7 197.4 155.4 190.5C159.2 196.3 165.5 200.3 172.9 200.8C185.4 201.6 196.2 192.2 197.1 179.7C197.9 167.3 188.4 156.4 175.9 155.6Z" fill="white"/>
<path d="M204.7 31L126.5 145.8L148.8 141.3L115.6 223.1L193.8 108.3L171.5 112.8L204.7 31Z" fill="#FFC200"/>
</svg>
