<svg viewBox="0 0 321 255" fill="none" xmlns="http://www.w3.org/2000/svg">
<path d="M264.4 135.2C263.3 135.1 262.2 135.2 261.1 135.2C260.4 125.1 252.3 116.9 242 116.4C238 116.2 234.2 117.2 231 119C228.8 109.1 220.3 101.4 209.6 100.8C200.8 100.4 192.9 104.9 188.6 112C187.5 111.8 186.4 111.7 185.3 111.6C172.1 110.9 160.5 119.3 156.5 131.3C144.1 132.1 134 142.1 133.3 154.8C132.7 167.6 141.8 178.6 154.1 180.6C156.8 189.8 165 196.8 175.2 197.3C182.7 197.7 189.6 194.4 194.1 189C199.6 197.4 209 203.2 219.8 203.8C231.6 204.4 242.3 198.6 248.5 189.5C252.3 191.7 256.7 193 261.4 193.3C277.5 194.1 291.1 181.8 292 165.7C292.9 149.6 280.4 136 264.4 135.2Z" fill="#0099DD"/>
<path d="M130.2 147.5C127.9 147.3 125.7 147.5 123.5 148C122.1 131.8 109.5 118.4 92.8 116.7C77.9 115.2 64.3 123.4 58.3 136.2C57.1 135.9 56 135.7 54.7 135.5C41.5 134.2 29.7 143.8 28.4 157C27.1 170.2 36.7 182 49.9 183.3C56.7 184 63.1 181.8 67.9 177.7C72.9 181.7 79.1 184.4 85.9 185.1C95.5 186.1 104.5 183 111.4 177.3C114.5 182.4 119.9 186.1 126.3 186.8C137.1 187.9 146.8 180 147.9 169.2C149 158.3 141.1 148.6 130.2 147.5Z" fill="#0099DD"/>
<path d="M246 86.8001C244.6 86.8001 243.3 86.9001 242 87C240.5 74.6 230 65 217.1 65C212.1 65 207.5 66.5001 203.7 68.9001C200.4 56.7001 189.3 47.8 176.1 47.8C165.2 47.8 155.7 53.9001 150.8 62.9001C149.5 62.7001 148.1 62.7001 146.7 62.7001C130.3 62.7001 116.5 73.8001 112.3 88.9001C97 90.7001 85.1 103.7 85.1 119.5C85.1 135.4 97.1 148.4 112.5 150.1C116.4 161.4 127.1 169.5 139.6 169.5C149 169.5 157.2 165 162.5 158.1C169.9 168.2 181.8 174.8 195.2 174.8C209.9 174.8 222.7 167 229.8 155.4C234.7 157.9 240.2 159.2 246 159.2C265.9 159.2 282.1 143 282.1 123.1C282.1 103.2 266 86.8001 246 86.8001Z" fill="#A2D8ED"/>
<path d="M175.9 160.9C173.2 160.7 170.7 161 168.3 161.7C166.1 143.2 151 128.3 131.7 127C114.6 125.8 99.2 135.8 92.8 150.7C91.5 150.4 90.1 150.2 88.7 150.1C73.5 149.1 60.3 160.6 59.3 175.8C58.3 191 69.8 204.2 85 205.2C92.8 205.7 100.1 202.9 105.4 198C111.3 202.4 118.5 205.2 126.4 205.8C137.4 206.5 147.7 202.7 155.4 195.8C159.2 201.6 165.5 205.6 172.9 206.1C185.4 206.9 196.2 197.5 197.1 185C197.9 172.6 188.4 161.8 175.9 160.9Z" fill="white"/>
</svg>
