<svg viewBox="0 0 321 255" fill="none" xmlns="http://www.w3.org/2000/svg">
<path d="M176.9 151.1C177.7 159.4 185 165.5 193.3 164.7C194.9 164.6 196.4 164.2 197.8 163.6C201.5 169.7 208.4 173.5 216 172.8C221.7 172.3 226.5 169.4 229.7 165.1C233.3 167.6 237.7 168.9 242.4 168.5C245.9 168.2 249 167 251.6 165.1C254.2 173.6 262.5 179.5 271.7 178.6C280.6 177.8 287.5 171 288.9 162.5C290.8 163 292.8 163.2 294.8 163C304 162.2 310.8 154 310 144.8C309.2 135.6 301 128.8 291.8 129.6C289.2 129.8 286.7 130.7 284.6 132C280.8 128.6 275.6 126.7 270.1 127.2C266.6 127.5 263.4 128.8 260.7 130.7C257.3 123.8 249.9 119.3 241.7 120.1C234.8 120.7 229.1 124.9 226.3 130.6C223 128.7 219.1 127.8 215 128.1C208.8 128.7 203.5 132.2 200.4 137.1C197.6 135.2 194.1 134.2 190.5 134.5C182.2 135.5 176.1 142.8 176.9 151.1Z" fill="white"/>
<path d="M159.6 197.2C198.591 197.2 230.2 165.591 230.2 126.6C230.2 87.6087 198.591 56 159.6 56C120.609 56 89 87.6087 89 126.6C89 165.591 120.609 197.2 159.6 197.2Z" fill="#FFC200"/>
<path d="M143.4 147.9C142.6 139.6 135.3 133.5 127 134.3C125.4 134.4 123.9 134.8 122.5 135.4C118.8 129.3 111.9 125.5 104.3 126.2C98.6 126.7 93.8 129.6 90.6 133.9C87 131.4 82.6 130.1 77.9 130.5C74.4 130.8 71.3 132 68.7 133.9C66.1 125.4 57.8 119.5 48.6 120.4C39.7 121.2 32.8 128 31.4 136.5C29.5 136 27.5 135.8 25.5 136C16.3 136.8 9.50002 145 10.3 154.2C11.1 163.4 19.3 170.2 28.5 169.4C31.1 169.2 33.6 168.3 35.7 167C39.5 170.4 44.7 172.3 50.2 171.8C53.7 171.5 56.9 170.2 59.6 168.3C63 175.2 70.4 179.7 78.6 178.9C85.5 178.3 91.2 174.1 94 168.4C97.3 170.3 101.2 171.2 105.3 170.9C111.5 170.3 116.8 166.8 119.9 161.9C122.7 163.8 126.2 164.8 129.8 164.5C138.1 163.5 144.2 156.2 143.4 147.9Z" fill="white"/>
</svg>
