<svg  viewBox="0 0 321 255" fill="none" xmlns="http://www.w3.org/2000/svg">
<path d="M258.1 132C256.6 132 255.2 132.1 253.8 132.2C252.2 118.9 240.9 108.5 227.2 108.5C221.9 108.5 217 110.1 212.8 112.7C209.3 99.7 197.4 90.1 183.3 90.1C171.6 90.1 161.4 96.7 156.3 106.3C154.9 106.1 153.4 106 151.9 106C134.3 106 119.5 117.9 115.1 134C98.7 135.9 86 149.8 86 166.7C86 183.6 98.8 197.6 115.3 199.4C119.5 211.5 130.9 220.1 144.4 220.1C154.4 220.1 163.3 215.3 168.9 207.9C176.8 218.7 189.5 225.7 203.9 225.7C219.6 225.7 233.3 217.4 240.9 204.9C246.1 207.5 252 209 258.2 209C279.5 209 296.8 191.7 296.8 170.4C296.7 149.3 279.4 132 258.1 132Z" fill="#A2D8ED"/>
<path d="M175 169.4C213.991 169.4 245.6 137.791 245.6 98.8C245.6 59.8087 213.991 28.2 175 28.2C136.009 28.2 104.4 59.8087 104.4 98.8C104.4 137.791 136.009 169.4 175 169.4Z" fill="#FFC200"/>
<path d="M177.9 131.3C174.3 131.3 170.9 131.9 167.8 133.1C163.2 108.6 141.7 90.1 115.9 90.1C92.9 90.1 73.4 104.8 66.1 125.2C64.3 124.9 62.4 124.8 60.5 124.8C40.1 124.8 23.6 141.3 23.6 161.7C23.6 182.1 40.1 198.6 60.5 198.6C71 198.6 80.4 194.2 87.1 187.2C95.4 192.6 105.2 195.7 115.8 195.7C130.6 195.7 144 189.6 153.5 179.8C159 187.2 167.8 192 177.8 192C194.6 192 208.2 178.4 208.2 161.6C208.2 144.9 194.6 131.3 177.9 131.3Z" fill="white"/>
</svg>
