<svg viewBox="0 0 321 255" xmlns="http://www.w3.org/2000/svg">
<path d="M106.5 201.4L111 190C111.7 188.2 110.8 186.2 109 185.5L102.7 183C100.9 182.3 98.9 183.2 98.2 185L93.7 196.4C93 198.2 93.9 200.2 95.7 200.9L102 203.4C103.8 204 105.8 203.1 106.5 201.4Z" fill="#A2D8ED"/>
<path d="M98.8001 211.5L92.5 209C90.7 208.3 88.7 209.2 88 211L83.5 222.4C82.8 224.2 83.7 226.2 85.5 226.9L91.8001 229.4C93.6001 230.1 95.6001 229.2 96.3001 227.4L100.8 216C101.5 214.2 100.6 212.2 98.8001 211.5Z" fill="#A2D8ED"/>
<path d="M130.5 204.7L124.2 202.2C122.4 201.5 120.4 202.4 119.7 204.2L115.2 215.6C114.5 217.4 115.4 219.4 117.2 220.1L123.5 222.6C125.3 223.3 127.3 222.4 128 220.6L132.5 209.2C133.2 207.5 132.3 205.4 130.5 204.7Z" fill="#A2D8ED"/>
<path d="M120.3 230.8L114 228.3C112.2 227.6 110.2 228.5 109.5 230.3L105 241.7C104.3 243.5 105.2 245.5 107 246.2L113.3 248.7C115.1 249.4 117.1 248.5 117.8 246.7L122.3 235.3C123 233.5 122.1 231.5 120.3 230.8Z" fill="#A2D8ED"/>
<path d="M158.9 211.5L152.6 209C150.8 208.3 148.8 209.2 148.1 211L143.6 222.4C142.9 224.2 143.8 226.2 145.6 226.9L151.9 229.4C153.7 230.1 155.7 229.2 156.4 227.4L160.9 216C161.6 214.2 160.7 212.2 158.9 211.5Z" fill="#A2D8ED"/>
<path d="M218 211.5L211.7 209C209.9 208.3 207.9 209.2 207.2 211L202.7 222.4C202 224.2 202.9 226.2 204.7 226.9L211 229.4C212.8 230.1 214.8 229.2 215.5 227.4L220 216C220.7 214.2 219.8 212.2 218 211.5Z" fill="#A2D8ED"/>
<path d="M190.6 204.7L184.3 202.2C182.5 201.5 180.5 202.4 179.8 204.2L175.3 215.6C174.6 217.4 175.5 219.4 177.3 220.1L183.6 222.6C185.4 223.3 187.4 222.4 188.1 220.6L192.6 209.2C193.3 207.5 192.4 205.4 190.6 204.7Z" fill="#A2D8ED"/>
<path d="M180.4 230.8L174.1 228.3C172.3 227.6 170.3 228.5 169.6 230.3L165.1 241.7C164.4 243.5 165.3 245.5 167.1 246.2L173.4 248.7C175.2 249.4 177.2 248.5 177.9 246.7L182.4 235.3C183.1 233.5 182.2 231.5 180.4 230.8Z" fill="#A2D8ED"/>
<path d="M258.1 109C256.6 109 255.2 109.1 253.8 109.2C252.2 95.9 240.9 85.5 227.2 85.5C221.9 85.5 217 87.1 212.8 89.7C209.3 76.7 197.4 67.1 183.3 67.1C171.6 67.1 161.4 73.7 156.3 83.3C154.9 83.1 153.4 83 151.9 83C134.3 83 119.5 94.9 115.1 111C98.7001 112.9 86.0001 126.8 86.0001 143.7C86.0001 160.6 98.8001 174.6 115.3 176.4C119.5 188.5 130.9 197.1 144.4 197.1C154.4 197.1 163.3 192.3 168.9 184.9C176.8 195.7 189.5 202.7 203.9 202.7C219.6 202.7 233.3 194.4 240.9 181.9C246.1 184.5 252 186 258.2 186C279.5 186 296.8 168.7 296.8 147.4C296.8 126.1 279.4 109 258.1 109Z" fill="#A2D8ED"/>
<path d="M175 146.4C213.991 146.4 245.6 114.791 245.6 75.8C245.6 36.8087 213.991 5.19995 175 5.19995C136.009 5.19995 104.4 36.8087 104.4 75.8C104.4 114.791 136.009 146.4 175 146.4Z" fill="#FFC200"/>
<path d="M177.9 108.4C174.3 108.4 170.9 109 167.8 110.2C163.2 85.7 141.7 67.2 115.9 67.2C92.9001 67.2 73.4001 81.9 66.1001 102.3C64.3001 102 62.4001 101.9 60.5001 101.9C40.1001 101.9 23.6001 118.4 23.6001 138.8C23.6001 159.2 40.1001 175.7 60.5001 175.7C71.0001 175.7 80.4001 171.3 87.1001 164.3C95.4001 169.7 105.2 172.8 115.8 172.8C130.6 172.8 144 166.7 153.5 156.9C159 164.3 167.8 169.1 177.8 169.1C194.6 169.1 208.2 155.5 208.2 138.7C208.2 121.9 194.6 108.4 177.9 108.4Z" fill="white"/>
</svg>
