<svg viewBox="0 0 321 255" fill="none" xmlns="http://www.w3.org/2000/svg">
<path d="M258.1 101C256.6 101 255.2 101.1 253.8 101.2C252.2 87.9 240.9 77.5 227.2 77.5C221.9 77.5 217 79.1 212.8 81.7C209.3 68.7 197.4 59.1 183.3 59.1C171.6 59.1 161.4 65.7 156.3 75.3C154.9 75.1 153.4 75 151.9 75C134.3 75 119.5 86.9 115.1 103C98.7 104.9 86 118.8 86 135.7C86 152.6 98.8 166.6 115.3 168.4C119.5 180.5 130.9 189.1 144.4 189.1C154.4 189.1 163.3 184.3 168.9 176.9C176.8 187.7 189.5 194.7 203.9 194.7C219.6 194.7 233.3 186.4 240.9 173.9C246.1 176.5 252 178 258.2 178C279.5 178 296.8 160.7 296.8 139.4C296.7 118.3 279.4 101 258.1 101Z" fill="#0099DD"/>
<path d="M177.9 100.4C174.3 100.4 170.9 101 167.8 102.2C163.2 77.6999 141.7 59.2 115.9 59.2C92.9 59.2 73.4 73.9 66.1 94.3C64.3 94 62.4 93.9 60.5 93.9C40.1 93.9 23.6 110.4 23.6 130.8C23.6 151.2 40.1 167.7 60.5 167.7C71 167.7 80.4 163.3 87.1 156.3C95.4 161.7 105.2 164.8 115.8 164.8C130.6 164.8 144 158.7 153.5 148.9C159 156.3 167.8 161.1 177.8 161.1C194.6 161.1 208.2 147.5 208.2 130.7C208.2 114 194.6 100.4 177.9 100.4Z" fill="white"/>
</svg>
