<svg viewBox="0 0 321 255" fill="none" xmlns="http://www.w3.org/2000/svg">
<path d="M110.3 193.8L104 191.3C102.2 190.6 100.2 191.5 99.5 193.3L95 204.7C94.3 206.5 95.2 208.5 97 209.2L103.3 211.7C105.1 212.4 107.1 211.5 107.8 209.7L112.3 198.3C112.9 196.6 112 194.5 110.3 193.8Z" fill="#A2D8ED"/>
<path d="M142 187.1L135.7 184.6C133.9 183.9 131.9 184.8 131.2 186.6L126.7 198C126 199.8 126.9 201.8 128.7 202.5L135 205C136.8 205.7 138.8 204.8 139.5 203L144 191.6C144.6 189.8 143.8 187.8 142 187.1Z" fill="#A2D8ED"/>
<path d="M131.8 213.1L125.5 210.6C123.7 209.9 121.7 210.8 121 212.6L116.5 224C115.8 225.8 116.7 227.8 118.5 228.5L124.8 231C126.6 231.7 128.6 230.8 129.3 229L133.8 217.6C134.5 215.8 133.6 213.8 131.8 213.1Z" fill="#A2D8ED"/>
<path d="M170.4 193.8L164.1 191.3C162.3 190.6 160.3 191.5 159.6 193.3L155.1 204.7C154.4 206.5 155.3 208.5 157.1 209.2L163.4 211.7C165.2 212.4 167.2 211.5 167.9 209.7L172.4 198.3C173 196.6 172.1 194.5 170.4 193.8Z" fill="#A2D8ED"/>
<path d="M229.5 193.8L223.2 191.3C221.4 190.6 219.4 191.5 218.7 193.3L214.2 204.7C213.5 206.5 214.4 208.5 216.2 209.2L222.5 211.7C224.3 212.4 226.3 211.5 227 209.7L231.5 198.3C232.2 196.6 231.3 194.5 229.5 193.8Z" fill="#A2D8ED"/>
<path d="M202.1 187.1L195.8 184.6C194 183.9 192 184.8 191.3 186.6L186.8 198C186.1 199.8 187 201.8 188.8 202.5L195.1 205C196.9 205.7 198.9 204.8 199.6 203L204.1 191.6C204.7 189.8 203.8 187.8 202.1 187.1Z" fill="#A2D8ED"/>
<path d="M191.9 213.1L185.6 210.6C183.8 209.9 181.8 210.8 181.1 212.6L176.6 224C175.9 225.8 176.8 227.8 178.6 228.5L184.9 231C186.7 231.7 188.7 230.8 189.4 229L193.9 217.6C194.6 215.8 193.7 213.8 191.9 213.1Z" fill="#A2D8ED"/>
<path d="M264.4 110.3C263.3 110.2 262.2 110.3 261.1 110.3C260.4 100.2 252.3 92.0001 242 91.5001C238 91.3001 234.2 92.3001 231 94.1001C228.8 84.2001 220.3 76.5001 209.6 75.9001C200.8 75.5001 192.9 80.0001 188.6 87.1001C187.5 86.9001 186.4 86.8001 185.3 86.7001C172.1 86.0001 160.5 94.4001 156.5 106.4C144.1 107.2 134 117.2 133.3 129.9C132.7 142.7 141.8 153.7 154.1 155.7C156.8 164.9 165 171.9 175.2 172.4C182.7 172.8 189.6 169.5 194.1 164.1C199.6 172.5 209 178.3 219.8 178.9C231.6 179.5 242.3 173.7 248.5 164.6C252.3 166.8 256.7 168.1 261.4 168.4C277.5 169.2 291.1 156.9 292 140.8C292.8 124.8 280.4 111.1 264.4 110.3Z" fill="#6FB3E2"/>
<path d="M130.2 122.6C127.9 122.4 125.7 122.6 123.5 123.1C122.1 106.9 109.5 93.5001 92.8 91.8001C77.9 90.3001 64.3 98.5001 58.3 111.3C57.1 111 56 110.8 54.7 110.6C41.5 109.3 29.7 118.9 28.4 132.1C27.1 145.3 36.7 157.1 49.9 158.4C56.7 159.1 63.1 156.9 67.9 152.8C72.9 156.8 79.1 159.5 85.9 160.2C95.5 161.2 104.5 158.1 111.4 152.4C114.5 157.5 119.9 161.2 126.3 161.9C137.1 163 146.8 155.1 147.9 144.3C149 133.4 141.1 123.7 130.2 122.6Z" fill="#6FB3E2"/>
<path d="M246 61.9001C244.6 61.9001 243.3 62 242 62.1C240.5 49.7 230 40 217.1 40C212.1 40 207.5 41.5001 203.7 43.9001C200.4 31.7001 189.3 22.8 176.1 22.8C165.2 22.8 155.7 28.9001 150.8 37.9001C149.5 37.7001 148.1 37.7001 146.7 37.7001C130.3 37.7001 116.5 48.8001 112.3 63.9001C97 65.7001 85.1 78.7 85.1 94.5C85.1 110.4 97.1 123.4 112.5 125.1C116.4 136.4 127.1 144.5 139.6 144.5C149 144.5 157.2 140 162.5 133.1C169.9 143.2 181.8 149.8 195.2 149.8C209.9 149.8 222.7 142 229.8 130.4C234.7 132.9 240.2 134.2 246 134.2C265.9 134.2 282.1 118 282.1 98.1001C282.1 78.2001 266 61.9001 246 61.9001Z" fill="#A2D8ED"/>
<path d="M175.9 136C173.2 135.8 170.7 136.1 168.3 136.8C166.1 118.3 151 103.4 131.7 102.1C114.6 100.9 99.2 110.9 92.8 125.8C91.5 125.5 90.1 125.3 88.7 125.2C73.5 124.2 60.3 135.7 59.3 150.9C58.3 166.1 69.8 179.3 85 180.3C92.8 180.8 100.1 178 105.4 173.1C111.3 177.5 118.5 180.3 126.4 180.9C137.4 181.6 147.7 177.8 155.4 170.9C159.2 176.7 165.5 180.7 172.9 181.2C185.4 182 196.2 172.6 197.1 160.1C197.9 147.7 188.4 136.9 175.9 136Z" fill="white"/>
</svg>
