<svg viewBox="0 0 321 255" fill="none" xmlns="http://www.w3.org/2000/svg">
<path d="M264.4 103.2C263.3 103.1 262.2 103.2 261.1 103.2C260.4 93.1 252.3 84.9 242 84.4C238 84.2 234.2 85.2 231 87C228.8 77.1 220.3 69.4 209.6 68.8C200.8 68.4 192.9 72.9 188.6 80C187.5 79.8 186.4 79.7 185.3 79.6C172.1 78.9 160.5 87.3 156.5 99.3C144.1 100.1 134 110.1 133.3 122.8C132.7 135.6 141.8 146.6 154.1 148.6C156.8 157.8 165 164.8 175.2 165.3C182.7 165.7 189.6 162.4 194.1 157C199.6 165.4 209 171.2 219.8 171.8C231.6 172.4 242.3 166.6 248.5 157.5C252.3 159.7 256.7 161 261.4 161.3C277.5 162.1 291.1 149.8 292 133.7C292.8 117.7 280.4 104 264.4 103.2Z" fill="#6FB3E2"/>
<path d="M130.2 115.5C127.9 115.3 125.7 115.5 123.5 116C122.1 99.8 109.5 86.4 92.8 84.7C77.9 83.2 64.3 91.4 58.3 104.2C57.1 103.9 56 103.7 54.7 103.5C41.5 102.2 29.7 111.8 28.4 125C27.1 138.2 36.7 150 49.9 151.3C56.7 152 63.1 149.8 67.9 145.7C72.9 149.7 79.1 152.4 85.9 153.1C95.5 154.1 104.5 151 111.4 145.3C114.5 150.4 119.9 154.1 126.3 154.8C137.1 155.9 146.8 148 147.9 137.2C149 126.3 141.1 116.6 130.2 115.5Z" fill="#6FB3E2"/>
<path d="M246 54.8C244.6 54.8 243.3 54.9001 242 55C240.5 42.6 230 33 217.1 33C212.1 33 207.5 34.5001 203.7 36.9001C200.4 24.7001 189.3 15.8 176.1 15.8C165.2 15.8 155.7 21.9 150.8 30.9C149.5 30.7 148.1 30.7 146.7 30.7C130.3 30.7 116.5 41.8001 112.3 56.9001C97 58.6001 85.1 71.6 85.1 87.4C85.1 103.3 97.1 116.3 112.5 118C116.4 129.3 127.1 137.4 139.6 137.4C149 137.4 157.2 132.9 162.5 126C169.9 136.1 181.8 142.7 195.2 142.7C209.9 142.7 222.7 134.9 229.8 123.3C234.7 125.8 240.2 127.1 246 127.1C265.9 127.1 282.1 110.9 282.1 91C282.1 71.1 266 54.8 246 54.8Z" fill="#A2D8ED"/>
<path d="M175.9 129C173.2 128.8 170.7 129.1 168.3 129.8C166.1 111.3 151 96.4 131.7 95.1C114.6 93.9 99.2 103.9 92.8 118.8C91.5 118.5 90.1 118.3 88.7 118.2C73.5 117.2 60.3 128.7 59.3 143.9C58.3 159.1 69.8 172.3 85 173.3C92.8 173.8 100.1 171 105.4 166.1C111.3 170.5 118.5 173.3 126.4 173.9C137.4 174.6 147.7 170.8 155.4 163.9C159.2 169.7 165.5 173.7 172.9 174.2C185.4 175 196.2 165.6 197.1 153.1C197.9 140.6 188.4 129.8 175.9 129Z" fill="white"/>
<path d="M168 212.5L168.5 206.1C168.6 204.8 167 204.1 166.1 205L161.6 209.5C161 210.1 160.1 210 159.6 209.4L155.4 204.5C154.6 203.5 153 204.1 152.9 205.4V211.8C152.9 212.6 152.2 213.2 151.4 213.2L145 212.7C143.7 212.6 143 214.2 143.9 215.1L148.4 219.6C149 220.2 148.9 221.1 148.3 221.6L143.4 225.8C142.4 226.6 143 228.2 144.3 228.3H150.7C151.5 228.3 152.1 229 152.1 229.8L151.6 236.2C151.5 237.5 153.1 238.2 154 237.3L158.5 232.8C159.1 232.2 160 232.3 160.5 232.9L164.7 237.8C165.5 238.8 167.1 238.2 167.2 236.9V230.5C167.2 229.7 167.9 229.1 168.7 229.1L175.1 229.6C176.4 229.7 177.1 228.1 176.2 227.2L171.7 222.7C171.1 222.1 171.2 221.2 171.8 220.7L176.7 216.5C177.7 215.7 177.1 214.1 175.8 214H169.4C168.6 214 168 213.3 168 212.5Z" fill="white"/>
<path d="M107.1 192.6L107.6 186.2C107.7 184.9 106.1 184.2 105.2 185.1L100.7 189.6C100.1 190.2 99.2 190.1 98.7 189.5L94.5 184.6C93.7 183.6 92.1 184.2 92 185.5V191.9C92 192.7 91.3 193.3 90.5 193.3L84.1 192.8C82.8 192.7 82.1 194.3 83 195.2L87.5 199.7C88.1 200.3 88 201.2 87.4 201.7L82.5 205.9C81.5 206.7 82.1 208.3 83.4 208.4H89.8C90.6 208.4 91.2 209.1 91.2 209.9L90.7 216.3C90.6 217.6 92.2 218.3 93.1 217.4L97.6 212.9C98.2 212.3 99.1 212.4 99.6 213L103.8 217.9C104.6 218.9 106.2 218.3 106.3 217V210.6C106.3 209.8 107 209.2 107.8 209.2L114.2 209.7C115.5 209.8 116.2 208.2 115.3 207.3L110.8 202.8C110.2 202.2 110.3 201.3 110.9 200.8L115.8 196.6C116.8 195.8 116.2 194.2 114.9 194.1H108.5C107.7 194.1 107.1 193.4 107.1 192.6Z" fill="white"/>
<path d="M229 192.6L229.5 186.2C229.6 184.9 228 184.2 227.1 185.1L222.6 189.6C222 190.2 221.1 190.1 220.6 189.5L216.4 184.6C215.6 183.6 214 184.2 213.9 185.5V191.9C213.9 192.7 213.2 193.3 212.4 193.3L206 192.8C204.7 192.7 204 194.3 204.9 195.2L209.4 199.7C210 200.3 209.9 201.2 209.3 201.7L204.4 205.9C203.4 206.7 204 208.3 205.3 208.4H211.7C212.5 208.4 213.1 209.1 213.1 209.9L212.6 216.3C212.5 217.6 214.1 218.3 215 217.4L219.5 212.9C220.1 212.3 221 212.4 221.5 213L225.7 217.9C226.5 218.9 228.1 218.3 228.2 217V210.6C228.2 209.8 228.9 209.2 229.7 209.2L236.1 209.7C237.4 209.8 238.1 208.2 237.2 207.3L232.7 202.8C232.1 202.2 232.2 201.3 232.8 200.8L237.7 196.6C238.7 195.8 238.1 194.2 236.8 194.1H230.4C229.5 194.1 228.9 193.4 229 192.6Z" fill="white"/>
</svg>
